# xmcd CD database file
#
# Track frame offsets:
#	150
#	16765
#	40108
#	60139
#	74064
#	84423
#	100595
#	122936
#	140961
#	163121
#	179278
#
# Disc length: 2621 seconds
#
# Revision: 0
# Processed by: cddbd v1.4PL0 Copyright (c) Steve Scherf et al.
# Submitted via: CDex 1.50beta9
#
DISCID=900a3b0b
DTITLE=Gerald Collier - Breakin' Down
DYEAR=2003
DGENRE=Country
TTITLE0=Pure Lonely
TTITLE1=Who Could Ask For More
TTITLE2=Tell Me Why (You Are So Cold)
TTITLE3=Where's Mine (Seems Like Everybody's Taking Pills)
TTITLE4=You Stand Before Me Crying
TTITLE5=Breakin' Down
TTITLE6=A Thousand Times A Day (I'm Gonna Miss You)
TTITLE7=Mexican Breeze
TTITLE8=Long Distance Nashville
TTITLE9=Someday Never Comes
TTITLE10=I Don't Cry Anymore
EXTD=YEAR: 2003
EXTT0=
EXTT1=
EXTT2=
EXTT3=
EXTT4=
EXTT5=
EXTT6=
EXTT7=
EXTT8=
EXTT9=
EXTT10=
PLAYORDER=
